<?xml version="1.0" standalone="no"?>
<!DOCTYPE svg PUBLIC "-//W3C//DTD SVG 20010904//EN"
 "http://www.w3.org/TR/2001/REC-SVG-20010904/DTD/svg10.dtd">
<svg version="1.0" xmlns="http://www.w3.org/2000/svg"
 width="701.000000pt" height="774.000000pt" viewBox="0 0 701.000000 774.000000"
 preserveAspectRatio="xMidYMid meet">

<g transform="translate(0.000000,774.000000) scale(0.100000,-0.100000)"
fill="#000000" stroke="none">
<path d="M0 3870 l0 -3870 3505 0 3505 0 0 3870 0 3870 -3505 0 -3505 0 0
-3870z m2551 3355 c61 -51 137 -105 146 -105 6 0 16 -7 23 -15 7 -8 21 -15 31
-15 11 0 19 -4 19 -10 0 -5 6 -10 14 -10 8 0 21 -6 28 -12 7 -7 29 -20 48 -29
108 -51 218 -102 240 -111 40 -17 94 -40 110 -48 9 -4 30 -11 48 -14 17 -4 34
-12 37 -17 4 -5 17 -9 30 -9 13 0 26 -4 30 -9 3 -5 20 -13 37 -17 18 -3 39
-10 48 -14 8 -5 65 -27 125 -50 61 -23 126 -50 145 -61 19 -10 70 -38 113 -61
77 -42 239 -165 285 -217 12 -14 32 -42 44 -61 12 -19 26 -38 31 -41 5 -4 7
-15 5 -25 -3 -18 -5 -17 -25 3 -39 39 -83 55 -154 56 -55 2 -72 6 -92 25 -24
23 -26 23 -228 18 -112 -3 -226 -7 -254 -8 -27 -1 -61 0 -75 4 -14 3 -43 9
-65 13 -22 4 -49 13 -61 20 -12 8 -36 15 -55 17 -19 2 -33 8 -32 14 3 13 -40
21 -185 34 -53 5 -124 14 -157 20 -33 5 -128 9 -212 9 -145 -2 -153 -3 -174
-25 -19 -21 -21 -30 -16 -96 5 -61 4 -68 -5 -40 -6 17 -15 32 -19 32 -5 0 -9
6 -9 13 0 6 -6 24 -14 39 -8 15 -17 40 -21 57 -4 17 -11 33 -16 36 -5 4 -9 17
-9 29 0 13 -6 39 -14 58 -32 75 -45 451 -22 616 15 110 34 209 42 223 2 4 50
-39 107 -95 56 -55 114 -110 128 -121z m2162 155 c4 -33 12 -68 18 -78 7 -11
9 -31 5 -46 -7 -27 -7 -27 -69 -21 -34 4 -70 11 -79 16 -9 5 -29 10 -45 10
-17 1 -21 3 -10 6 9 2 17 8 17 12 0 4 29 38 65 76 36 37 65 72 65 76 0 5 6 9
14 9 9 0 15 -19 19 -60z m-2988 -561 c55 -6 129 -13 165 -15 96 -8 115 -30 52
-58 -31 -14 -65 -17 -188 -16 -82 1 -177 -1 -211 -5 -82 -9 -173 9 -173 35 0
10 -4 20 -9 22 -5 2 -11 12 -13 23 -2 15 4 21 27 25 38 7 221 1 350 -11z
m3965 -3 c0 -8 -7 -21 -15 -30 -8 -8 -15 -22 -15 -30 0 -9 -8 -16 -19 -16 -11
0 -21 -5 -23 -12 -3 -9 -65 -12 -257 -9 -139 1 -265 6 -280 11 -15 4 -53 3
-84 -2 -36 -6 -75 -6 -109 0 -38 7 -45 10 -23 11 17 1 41 8 55 16 14 8 42 14
63 15 21 0 48 5 60 12 39 22 275 43 510 46 113 2 137 -1 137 -12z m-3775 -539
c89 -17 114 -24 233 -65 83 -28 95 -42 38 -42 -48 0 -17 -19 37 -22 29 -2 47
-8 47 -15 0 -7 -4 -13 -8 -13 -5 0 -8 -16 -7 -35 3 -32 -1 -37 -34 -51 -28
-12 -44 -13 -76 -5 -22 6 -57 10 -78 9 -34 -3 -37 -5 -32 -28 3 -14 -1 -34 -8
-45 -14 -18 -16 -17 -48 17 -97 104 -362 234 -496 244 -57 4 -63 3 -74 -18 -7
-13 -16 -26 -21 -29 -17 -11 -57 3 -63 22 -4 10 -10 19 -14 19 -5 0 -8 11 -8
24 0 23 3 25 76 31 42 4 87 10 101 15 38 14 344 5 435 -13z m3723 3 c78 -11
92 -16 92 -32 0 -19 -25 -25 -35 -8 -31 49 -454 -88 -542 -176 -8 -7 -19 -14
-24 -14 -6 0 -23 -12 -39 -27 -51 -51 -70 -63 -95 -63 -14 0 -28 7 -31 15 -4
8 -16 15 -29 15 -14 0 -33 13 -49 34 -29 39 -33 56 -11 56 8 0 15 4 15 8 0 18
-26 32 -62 32 -40 0 -48 10 -24 30 8 6 12 18 9 26 -4 10 3 14 21 14 15 0 29 7
32 15 4 8 13 15 21 15 9 0 36 7 62 15 46 14 77 22 186 48 75 19 368 17 503 -3z
m46 -108 c-4 -19 -1 -32 10 -41 17 -14 22 -71 7 -71 -5 0 -13 -10 -17 -22 -7
-22 -8 -22 -20 7 -16 36 -18 91 -4 100 6 3 10 17 10 31 0 13 4 24 10 24 5 0 7
-13 4 -28z m-934 -56 c0 -3 -4 -8 -10 -11 -5 -3 -10 -1 -10 4 0 6 5 11 10 11
6 0 10 -2 10 -4z m-3390 -37 c0 -11 -4 -17 -10 -14 -5 3 -10 13 -10 21 0 8 5
14 10 14 6 0 10 -9 10 -21z m50 -129 c0 -25 -5 -40 -15 -44 -9 -3 -15 -1 -14
7 3 25 -1 37 -12 35 -21 -5 -21 23 0 29 12 3 21 10 21 15 0 5 5 6 10 3 6 -3
10 -23 10 -45z m2430 30 c245 -17 412 -50 540 -107 107 -48 126 -59 208 -120
119 -89 186 -180 303 -418 22 -44 44 -88 50 -97 5 -10 9 -31 9 -48 0 -25 -4
-30 -24 -30 -13 0 -43 -7 -66 -15 -23 -8 -55 -15 -71 -15 -15 0 -31 -4 -34
-10 -3 -5 -36 -10 -73 -10 -41 0 -75 -5 -87 -14 -11 -7 -51 -16 -90 -20 -93
-7 -222 -29 -231 -38 -4 -5 -24 -8 -44 -8 -20 0 -45 -7 -56 -15 -10 -8 -27
-15 -37 -15 -46 0 -147 -93 -181 -166 -25 -52 -26 -61 -26 -254 -1 -124 -5
-198 -11 -195 -5 4 -9 2 -9 -2 0 -5 -35 -9 -77 -10 -58 0 -86 5 -111 18 -28
17 -56 19 -212 19 -170 0 -180 -1 -180 -19 0 -21 -46 -36 -54 -17 -3 7 -9 5
-18 -5 -17 -20 -130 -34 -158 -19 -22 12 -26 40 -10 70 6 11 11 95 11 189 1
141 -2 173 -15 192 -9 13 -16 32 -16 42 0 25 -96 117 -145 141 -22 10 -52 25
-67 32 -14 8 -44 14 -65 14 -22 0 -43 3 -47 8 -10 9 -140 32 -226 39 -35 3
-73 11 -84 19 -12 8 -45 14 -77 14 -31 0 -72 6 -91 14 -19 8 -49 14 -67 14
-17 -1 -37 4 -43 10 -7 7 -27 12 -45 12 -30 0 -33 3 -33 30 0 46 158 348 224
429 123 150 317 265 521 309 240 52 677 74 1015 52z m1160 -38 c0 -5 -9 -17
-20 -27 -19 -18 -20 -17 -20 2 0 11 3 23 7 26 9 10 33 9 33 -1z m-3139 -1418
c-1 -25 -6 -56 -11 -68 -5 -15 -5 -27 2 -34 18 -18 37 -81 44 -145 4 -31 10
-60 15 -63 5 -2 18 -26 29 -52 12 -26 31 -58 44 -72 13 -14 28 -51 35 -82 7
-32 15 -58 19 -58 4 0 17 -15 30 -34 22 -32 23 -36 8 -65 -9 -16 -16 -36 -16
-43 0 -7 -4 -19 -9 -27 -10 -15 -26 -3 -128 97 -101 100 -137 175 -149 312 -7
70 12 236 27 246 5 3 9 14 9 26 0 11 6 34 14 51 8 18 17 41 20 51 10 31 20 9
17 -40z m3329 21 c0 -14 4 -25 10 -25 5 0 12 -17 16 -37 4 -21 10 -42 14 -48
4 -5 13 -54 19 -107 12 -96 2 -236 -19 -263 -4 -5 -10 -21 -13 -35 -4 -14 -18
-38 -32 -54 -14 -16 -25 -32 -25 -36 0 -8 -100 -110 -144 -147 -36 -32 -46
-29 -46 12 0 22 -6 38 -15 41 -24 10 -17 53 21 134 20 41 40 84 44 95 14 40
33 91 51 140 9 27 34 72 53 98 20 26 36 59 36 72 0 13 5 27 10 30 12 7 13 52
2 59 -5 3 -9 26 -10 51 -2 34 1 45 13 45 9 0 15 -9 15 -25z m-780 -397 c19 -7
49 -28 68 -45 19 -18 38 -33 43 -33 5 0 9 -6 9 -13 0 -8 10 -19 23 -26 27 -16
123 -135 154 -192 12 -23 27 -47 33 -53 5 -5 10 -18 10 -27 0 -10 6 -30 14
-46 49 -99 48 -221 -5 -393 -15 -48 -70 -162 -86 -178 -7 -7 -13 -17 -13 -21
0 -4 -25 -32 -56 -62 -80 -78 -81 -79 -93 -79 -6 0 -29 -11 -51 -25 -36 -23
-49 -25 -142 -24 -85 0 -99 2 -78 12 14 6 27 12 29 14 2 1 -10 16 -28 32 -32
30 -39 58 -21 91 14 27 -13 50 -60 50 -41 0 -56 21 -38 54 8 14 2 16 -44 16
-63 0 -133 23 -205 69 -48 30 -53 36 -53 69 0 26 8 44 25 61 14 13 29 21 32
17 11 -10 53 36 53 59 0 11 9 38 19 59 20 38 20 38 0 43 -13 4 -18 11 -15 20
3 8 6 20 6 26 0 12 76 95 119 129 24 21 27 41 7 57 -13 11 -12 15 2 32 19 22
48 25 55 7 5 -14 16 -4 83 77 56 69 70 92 89 149 23 67 45 99 64 93 9 -3 32
-11 51 -19z m-3490 -51 c0 -44 17 -83 27 -59 9 22 23 13 23 -16 0 -16 9 -37
20 -47 11 -10 20 -23 20 -28 0 -6 22 -36 49 -66 26 -31 57 -74 69 -96 11 -22
29 -51 41 -64 12 -13 21 -31 22 -40 1 -9 2 -36 4 -61 2 -48 -10 -107 -44 -207
-12 -34 -21 -78 -21 -98 0 -19 -5 -35 -11 -35 -6 0 -3 -7 6 -16 9 -9 14 -22
11 -29 -2 -7 6 -17 20 -23 21 -10 22 -15 14 -37 -13 -35 -14 -32 19 -49 27
-15 29 -19 28 -76 0 -49 -4 -63 -19 -71 -19 -10 -25 -29 -9 -29 5 0 16 7 25
15 8 8 17 15 20 15 6 0 37 23 65 50 19 17 98 70 105 70 3 0 17 11 32 25 52 48
45 25 -8 -26 -205 -198 -347 -341 -423 -429 -122 -141 -148 -169 -155 -165 -4
2 -10 21 -14 42 -3 21 -13 79 -21 128 -20 117 -44 419 -45 565 0 117 13 282
31 405 6 39 14 99 18 135 3 36 10 71 15 78 4 7 12 37 17 65 20 122 27 151 38
155 6 2 11 19 11 38 0 21 4 33 10 29 6 -3 10 -25 10 -48z m1720 38 c7 -8 20
-15 29 -15 30 0 69 -52 76 -101 8 -55 11 -59 55 -82 63 -33 141 -111 147 -148
2 -19 10 -36 16 -38 24 -9 80 -78 101 -126 13 -27 41 -68 62 -91 110 -115 114
-121 108 -153 -6 -27 -4 -31 15 -31 18 0 21 -6 21 -40 0 -44 0 -44 -135 -70
-33 -7 -73 -20 -90 -29 -16 -9 -48 -21 -69 -26 -28 -8 -40 -16 -41 -30 -4 -56
-18 -93 -45 -125 -16 -19 -30 -41 -30 -47 0 -7 -4 -13 -10 -13 -5 0 -7 -7 -3
-16 3 -8 11 -13 18 -10 6 2 18 0 26 -5 18 -11 -265 -12 -289 0 -145 73 -208
130 -276 257 -40 72 -52 107 -77 207 -20 83 -26 212 -9 222 6 3 10 17 10 31 0
65 127 279 217 365 93 90 96 92 123 111 31 21 35 21 50 3z m3520 -112 c6 -27
15 -71 20 -99 4 -28 13 -61 19 -72 6 -11 11 -40 11 -64 0 -24 5 -61 11 -83 12
-43 24 -180 35 -388 8 -141 -8 -432 -32 -587 -17 -118 -35 -203 -44 -213 -10
-12 -52 30 -195 198 -27 32 -103 113 -167 179 -65 67 -118 127 -118 135 0 11
5 10 23 -3 43 -32 70 -39 83 -22 6 9 15 16 21 16 5 0 29 39 53 87 52 100 52
112 15 263 -27 109 -43 244 -26 220 11 -15 12 -13 14 30 2 19 7 24 22 23 11
-1 14 0 8 3 -17 8 -16 29 2 44 11 9 15 9 15 1 0 -7 5 -9 11 -5 8 5 7 9 -1 14
-7 5 -10 16 -6 25 5 15 9 15 22 4 14 -11 15 -10 12 7 -2 13 2 19 14 18 18 -2
21 7 33 111 5 42 12 55 46 85 32 28 41 44 46 78 4 32 10 42 24 42 13 0 20 -13
29 -47z m-2250 -369 c0 -8 -4 -14 -10 -14 -5 0 -10 9 -10 21 0 11 5 17 10 14
6 -3 10 -13 10 -21z m-730 -65 c0 -12 -29 -24 -37 -16 -3 4 -3 13 0 21 6 16
37 11 37 -5z m670 -94 c0 -8 -9 -19 -20 -25 -17 -9 -20 -8 -20 8 0 10 3 22 7
25 12 12 33 7 33 -8z m-54 -62 c-10 -10 -19 5 -10 18 6 11 8 11 12 0 2 -7 1
-15 -2 -18z m364 -348 c0 -9 -6 -12 -15 -9 -8 4 -15 10 -15 15 0 5 7 9 15 9 8
0 15 -7 15 -15z m7 -101 c-3 -3 -12 -4 -19 -1 -8 3 -5 6 6 6 11 1 17 -2 13 -5z
m-1362 -734 c8 -14 68 -13 82 1 9 9 24 9 60 -1 34 -9 183 -14 498 -17 358 -3
456 -7 478 -18 23 -12 48 -12 125 -5 121 12 162 12 162 2 0 -9 -86 -72 -99
-72 -5 0 -14 -7 -21 -15 -7 -8 -21 -15 -31 -15 -11 0 -19 -4 -19 -10 0 -5 -9
-10 -19 -10 -11 0 -22 -4 -26 -9 -3 -5 -31 -23 -63 -39 -61 -31 -186 -97 -242
-128 -19 -10 -40 -25 -48 -31 -7 -7 -18 -13 -23 -13 -6 0 -27 -11 -47 -25 -41
-28 -83 -32 -102 -10 -7 8 -17 15 -22 15 -6 0 -24 10 -41 23 -18 12 -41 27
-52 33 -34 19 -203 108 -330 174 -147 76 -265 161 -265 190 0 12 35 -4 45 -20z
m-1291 -58 l131 3 6 -61 c3 -33 9 -66 13 -72 4 -6 11 -57 16 -113 7 -83 12
-104 27 -113 32 -18 66 -16 80 4 23 32 43 25 43 -15 0 -37 25 -50 36 -20 6 14
8 14 18 -1 11 -15 15 -14 34 11 12 15 22 35 22 44 1 9 16 34 35 55 28 32 35
36 35 20 0 -11 -11 -44 -25 -72 -14 -29 -25 -56 -25 -60 0 -5 -11 -32 -25 -60
-14 -29 -25 -56 -25 -62 0 -6 -4 -18 -10 -28 -14 -25 -36 -80 -55 -137 -9 -27
-21 -59 -25 -70 -9 -23 -60 -192 -85 -280 -24 -86 -23 -85 -34 -85 -5 0 -16
12 -24 28 -63 122 -99 194 -117 237 -12 28 -30 68 -39 90 -10 22 -26 60 -36
85 -9 25 -21 54 -26 65 -7 17 -60 182 -105 325 -8 25 -14 54 -14 65 0 12 -4
25 -9 30 -5 6 -12 30 -15 55 -19 135 -19 130 5 154 l24 22 19 -24 c19 -24 21
-24 150 -20z m2726 38 c0 -5 -4 -10 -10 -10 -5 0 -10 5 -10 10 0 6 5 10 10 10
6 0 10 -4 10 -10z m1472 -136 c-2 -21 -10 -64 -18 -94 -8 -30 -14 -64 -14 -77
0 -12 -4 -25 -10 -28 -5 -3 -10 -17 -10 -31 0 -13 -4 -32 -9 -42 -6 -9 -17
-44 -26 -77 -16 -55 -35 -110 -56 -160 -5 -11 -17 -43 -28 -71 -11 -28 -29
-71 -39 -95 -118 -261 -155 -333 -176 -337 -10 -2 -16 4 -16 16 0 11 -7 44
-16 73 -8 30 -23 79 -31 109 -9 30 -19 62 -23 70 -4 9 -11 31 -15 50 -4 19
-10 40 -14 45 -4 6 -15 37 -26 70 -10 33 -22 65 -26 70 -3 6 -16 39 -28 74
-12 35 -31 82 -42 104 -10 23 -19 46 -19 53 0 6 -7 24 -14 40 -26 49 -5 47 41
-5 25 -28 53 -51 63 -51 9 0 42 14 73 31 31 17 61 28 67 24 24 -15 47 15 54
71 11 97 27 145 50 154 12 4 77 13 146 19 91 8 128 15 135 26 17 26 30 10 27
-31z m-3660 -93 c-5 -3 -11 -15 -13 -25 -2 -11 -8 -18 -14 -15 -13 5 -8 27 13
55 14 18 18 19 20 7 2 -9 0 -18 -6 -22z m2988 -83 c0 -5 -4 -8 -10 -8 -5 0
-10 10 -10 23 0 18 2 19 10 7 5 -8 10 -18 10 -22z m-2190 -725 c0 -19 -3 -24
-10 -17 -6 6 -8 18 -4 27 9 24 14 21 14 -10z m-20 -65 c0 -13 -7 -36 -15 -52
-8 -15 -15 -43 -15 -62 0 -18 -4 -43 -9 -56 -8 -21 -18 -69 -52 -248 -13 -70
-26 -185 -37 -317 -4 -45 -10 -84 -13 -87 -4 -4 -44 35 -90 86 -99 109 -97
107 -129 149 -14 18 -31 38 -37 45 -7 7 -13 15 -13 18 0 11 -64 96 -72 96 -4
0 -8 4 -8 10 0 7 -57 96 -87 135 -5 6 -19 32 -33 58 -14 27 -31 58 -37 70 -11
19 -10 25 13 45 14 12 30 20 35 17 5 -4 14 -3 20 1 6 4 66 8 133 9 l121 2 42
-89 c43 -90 59 -103 89 -73 23 22 31 19 38 -17 6 -30 7 -31 26 -13 11 10 20
26 20 35 0 10 16 57 36 106 20 49 40 104 46 122 10 37 28 43 28 10z m1450
-169 c0 -14 7 -34 15 -45 8 -10 15 -29 15 -41 0 -16 6 -23 20 -23 11 0 20 5
20 11 0 8 14 9 44 5 l43 -7 28 56 c35 68 48 79 94 81 115 5 223 14 246 20 26
6 26 6 22 -43 -4 -40 -18 -71 -73 -159 -38 -60 -72 -113 -76 -119 -106 -141
-198 -253 -273 -333 -68 -73 -73 -70 -74 35 -1 35 -5 82 -11 105 -5 24 -14 79
-20 123 -12 95 -23 162 -45 270 -9 44 -18 100 -21 125 l-5 45 26 -40 c13 -22
25 -52 25 -66z"/>
<path d="M4152 3190 c10 -6 31 -7 55 -1 38 9 38 9 -17 10 -40 0 -50 -2 -38 -9z"/>
<path d="M4360 2970 c0 -5 5 -10 11 -10 5 0 7 5 4 10 -3 6 -8 10 -11 10 -2 0
-4 -4 -4 -10z"/>
</g>
</svg>
